<svg xmlns="http://www.w3.org/2000/svg" viewBox="0 0 956.6 678.01"><defs></defs><g id="Layer_2" data-name="Layer 2"><g id="Layer_1-2" data-name="Layer 1"><path class="cls-1" d="M953,326.22c-51.71-79.87-110.79-153.53-184.77-214.28C596.28-29.29,392.76-37.42,215.74,90.6q-15.45,11.16-30,23.14c-73.54,60-131.93,134-183.33,213.91-3.83,6-2.76,19.12,1.36,25.48,50.4,77.74,107.75,149.72,179.42,209.28.79.66,1.6,1.3,2.39,2,84.8,69.8,179.92,113,275.23,113.64,85.08,0,149.44-16,209.83-47.41C794.23,566.38,880,463.5,954.49,349.68,958,344.3,956.85,332.11,953,326.22Z"/></g></g></svg>